<svg xmlns="http://www.w3.org/2000/svg" width="200" height="50" viewBox="0 0 200 50">
  <defs>
    <linearGradient id="gradient" x1="0%" y1="0%" x2="100%" y2="0%">
      <stop offset="0%" stop-color="#43cea2" />
      <stop offset="100%" stop-color="#185a9d" />
    </linearGradient>
  </defs>
  <path d="M28.8,16.8c-1.4-1.4-3.1-2.1-5.1-2.1s-3.7,0.7-5.1,2.1c-1.4,1.4-2.1,3.1-2.1,5.1s0.7,3.7,2.1,5.1c1.4,1.4,3.1,2.1,5.1,2.1 s3.7-0.7,5.1-2.1c1.4-1.4,2.1-3.1,2.1-5.1S30.2,18.2,28.8,16.8z M26.4,24.7c-0.7,0.7-1.7,1.1-2.7,1.1s-2-0.4-2.7-1.1 c-0.7-0.7-1.1-1.7-1.1-2.7s0.4-2,1.1-2.7c0.7-0.7,1.7-1.1,2.7-1.1s2,0.4,2.7,1.1c0.7,0.7,1.1,1.7,1.1,2.7S27.1,23.9,26.4,24.7z" fill="#6c63ff"/>
  <path d="M40.1,28.9V16.6h-3.7v12.3H40.1z" fill="#6c63ff"/>
  <path d="M52.7,16.6h-3.7V26c0,0.3-0.1,0.6-0.3,0.8c-0.2,0.2-0.5,0.3-0.8,0.3s-0.6-0.1-0.8-0.3c-0.2-0.2-0.3-0.5-0.3-0.8v-9.4h-3.7 V26c0,1.4,0.5,2.5,1.5,3.5c1,1,2.1,1.5,3.5,1.5c1.4,0,2.5-0.5,3.5-1.5c1-1,1.5-2.1,1.5-3.5v-9.4H52.7z" fill="#6c63ff"/>
  <text x="60" y="30" font-family="Arial, sans-serif" font-size="22" font-weight="bold" fill="url(#gradient)">POOKIES</text>
  <rect x="55" y="15" width="2" height="20" fill="#6c63ff" />
</svg>
