<?xml version="1.0" encoding="UTF-8"?>
<svg width="600px" height="400px" viewBox="0 0 600 400" version="1.1" xmlns="http://www.w3.org/2000/svg" xmlns:xlink="http://www.w3.org/1999/xlink">
    <defs>
        <linearGradient x1="0%" y1="0%" x2="100%" y2="100%" id="projectGradient2">
            <stop stop-color="#FF6584" offset="0%"></stop>
            <stop stop-color="#FF4365" offset="100%"></stop>
        </linearGradient>
    </defs>
    <g stroke="none" stroke-width="1" fill="none" fill-rule="evenodd">
        <rect fill="#F0F0F0" x="0" y="0" width="600" height="400"></rect>
        <g transform="translate(50, 50)">
            <rect fill="url(#projectGradient2)" opacity="0.2" x="0" y="0" width="500" height="300" rx="20"></rect>
            <g transform="translate(100, 60)">
                <circle fill="#FF6584" cx="150" cy="40" r="30"></circle>
                <path d="M135,35 L145,45 L165,25" stroke="#FFFFFF" stroke-width="6" stroke-linecap="round" stroke-linejoin="round"></path>
                <rect fill="#FFFFFF" x="100" y="100" width="100" height="100" rx="15"></rect>
                <path d="M125,130 L175,130" stroke="#FF6584" stroke-width="4" stroke-linecap="round"></path>
                <path d="M125,150 L175,150" stroke="#FF6584" stroke-width="4" stroke-linecap="round"></path>
                <path d="M125,170 L175,170" stroke="#FF6584" stroke-width="4" stroke-linecap="round"></path>
                <circle fill="#FFFFFF" cx="70" cy="150" r="20"></circle>
                <circle fill="#FFFFFF" cx="230" cy="150" r="20"></circle>
                <path d="M55,150 L85,150" stroke="#FF6584" stroke-width="3" stroke-linecap="round"></path>
                <path d="M215,150 L245,150" stroke="#FF6584" stroke-width="3" stroke-linecap="round"></path>
                <path d="M70,135 L70,165" stroke="#FF6584" stroke-width="3" stroke-linecap="round"></path>
                <path d="M230,135 L230,165" stroke="#FF6584" stroke-width="3" stroke-linecap="round"></path>
            </g>
        </g>
    </g>
</svg>
